<svg xmlns="http://www.w3.org/2000/svg" width="108" height="19" viewBox="0 0 108 19"><g fill="#F2CA8C"><path d="M32 15.27L38.18 19l-1.64-7.03L42 7.24l-7.19-.61L32 0l-2.81 6.63-7.19.61 5.46 4.73L25.82 19zM54 15.27L60.18 19l-1.64-7.03L64 7.24l-7.19-.61L54 0l-2.81 6.63-7.19.61 5.46 4.73L47.82 19zM76 15.27L82.18 19l-1.64-7.03L86 7.24l-7.19-.61L76 0l-2.81 6.63-7.19.61 5.46 4.73L69.82 19zM98 15.27l6.18 3.73-1.64-7.03L108 7.24l-7.19-.61L98 0l-2.81 6.63-7.19.61 5.46 4.73L91.82 19zM0 7.24l7.19-.62L10 0l2.81 6.63 7.19.61-5.46 4.73L16.18 19 10 15.27 3.82 19l1.63-7.03L0 7.24zm10 6.16V4.1L8.29 8.14l-4.38.38 3.32 2.88-1 4.28L10 13.4z"/></g></svg>