<svg xmlns="http://www.w3.org/2000/svg" width="108" height="19" viewBox="0 0 108 19"><g fill="#E59819"><path d="M98 15.27l6.18 3.73-1.64-7.03L108 7.24l-7.19-.61L98 0l-2.81 6.63-7.19.61 5.46 4.73L91.82 19zM76 15.27L82.18 19l-1.64-7.03L86 7.24l-7.19-.61L76 0l-2.81 6.63-7.19.61 5.46 4.73L69.82 19zM54 15.27L60.18 19l-1.64-7.03L64 7.24l-7.19-.61L54 0l-2.81 6.63-7.19.61 5.46 4.73L47.82 19zM32 15.27L38.18 19l-1.64-7.03L42 7.24l-7.19-.61L32 0l-2.81 6.63-7.19.61 5.46 4.73L25.82 19zM10 15.27L16.18 19l-1.64-7.03L20 7.24l-7.19-.61L10 0 7.19 6.63 0 7.24l5.46 4.73L3.82 19z"/></g></svg>