<svg xmlns="http://www.w3.org/2000/svg" width="16" height="16" viewBox="0 0 16 16"><g fill="none" fill-rule="evenodd"><path d="M0 0h16v16H0z"/><path fill="#B32E0E" fill-rule="nonzero" d="M7.027 9.687l-1.42-1.42-.707.706 2.12 2.12 4-4-.707-.706-3.286 3.3zm4.531-8.48l3.071 2.563-.853 1.023-3.073-2.562.855-1.024zm-7.116 0l.855 1.024-3.072 2.562L1.37 3.77l3.071-2.562zM8 2.667a6 6 0 10.001 12 6 6 0 00-.001-12zm0 10.666a4.672 4.672 0 01-4.667-4.666A4.672 4.672 0 018 4a4.672 4.672 0 014.667 4.667A4.672 4.672 0 018 13.333z"/></g></svg>