<svg xmlns="http://www.w3.org/2000/svg" width="21" height="18" viewBox="0 0 21 18"><path fill="#FFF" d="M18 0H2.25A2.25 2.25 0 000 2.25v13.5A2.25 2.25 0 002.25 18H18a2.257 2.257 0 002.25-2.25V2.25A2.257 2.257 0 0018 0zM9 7.875H7.312v-.563h-2.25v3.375h2.25v-.562H9v1.125c0 .619-.506 1.125-1.125 1.125H4.5a1.128 1.128 0 01-1.125-1.125v-4.5c0-.619.506-1.125 1.125-1.125h3.375C8.494 5.625 9 6.131 9 6.75v1.125zm7.875 0h-1.688v-.563h-2.25v3.375h2.25v-.562h1.688v1.125c0 .619-.506 1.125-1.125 1.125h-3.375a1.128 1.128 0 01-1.125-1.125v-4.5c0-.619.506-1.125 1.125-1.125h3.375c.619 0 1.125.506 1.125 1.125v1.125z"/></svg>