<svg xmlns="http://www.w3.org/2000/svg" width="20" height="20" viewBox="0 0 20 20"><g fill="none" fill-rule="evenodd"><path d="M0 0h20v20H0z"/><path fill="#000" fill-rule="nonzero" d="M15.833 4.167h-1.666V2.5H5.833v1.667H4.167c-.917 0-1.667.75-1.667 1.666v.834c0 2.125 1.6 3.858 3.658 4.116a4.174 4.174 0 003.009 2.467v2.583H5.833V17.5h8.334v-1.667h-3.334V13.25a4.174 4.174 0 003.009-2.467C15.9 10.525 17.5 8.792 17.5 6.667v-.834c0-.916-.75-1.666-1.667-1.666zm-11.666 2.5v-.834h1.666v3.184a2.509 2.509 0 01-1.666-2.35zm5.833 5a2.507 2.507 0 01-2.5-2.5v-5h5v5c0 1.375-1.125 2.5-2.5 2.5zm5.833-5c0 1.083-.7 2-1.666 2.35V5.833h1.666v.834z"/></g></svg>