<svg xmlns="http://www.w3.org/2000/svg" width="19" height="19" viewBox="0 0 19 19"><path fill="#FFF" d="M9.49 0C4.246 0 0 4.256 0 9.5S4.246 19 9.49 19C14.744 19 19 14.744 19 9.5S14.744 0 9.49 0zm6.584 5.7h-2.802a14.867 14.867 0 00-1.311-3.382A7.628 7.628 0 0116.074 5.7zM9.5 1.938A13.382 13.382 0 0111.315 5.7h-3.63A13.382 13.382 0 019.5 1.938zM2.147 11.4A7.83 7.83 0 011.9 9.5c0-.655.095-1.292.247-1.9h3.211a15.69 15.69 0 00-.133 1.9c0 .646.057 1.273.133 1.9H2.147zm.779 1.9h2.802a14.867 14.867 0 001.311 3.382A7.587 7.587 0 012.926 13.3zm2.802-7.6H2.926a7.587 7.587 0 014.113-3.382A14.867 14.867 0 005.73 5.7zM9.5 17.062A13.382 13.382 0 017.685 13.3h3.63A13.382 13.382 0 019.5 17.062zm2.223-5.662H7.277a13.977 13.977 0 01-.152-1.9c0-.646.067-1.282.152-1.9h4.446c.085.618.152 1.254.152 1.9 0 .646-.067 1.273-.152 1.9zm.238 5.282a14.867 14.867 0 001.31-3.382h2.803a7.628 7.628 0 01-4.113 3.382zm1.681-5.282a15.69 15.69 0 00.133-1.9c0-.646-.057-1.273-.133-1.9h3.211a7.83 7.83 0 01.247 1.9 7.83 7.83 0 01-.247 1.9h-3.211z"/></svg>