<svg xmlns="http://www.w3.org/2000/svg" width="20" height="20" viewBox="0 0 20 20"><g fill="none" fill-rule="evenodd"><path d="M0 0h20v20H0z"/><path fill="#000" fill-rule="nonzero" d="M15.5 5.517c-1.2 0-2.333.466-3.142 1.275l-5.858 5.2a2.804 2.804 0 01-2 .825A2.82 2.82 0 011.675 10 2.82 2.82 0 014.5 7.183c.758 0 1.467.292 2.033.859l.942.833 1.258-1.117-1.05-.925A4.476 4.476 0 004.5 5.517C2.017 5.517 0 7.533 0 10c0 2.467 2.017 4.483 4.5 4.483 1.2 0 2.333-.466 3.142-1.275l5.858-5.2a2.804 2.804 0 012-.825A2.82 2.82 0 0118.325 10a2.82 2.82 0 01-2.825 2.817c-.75 0-1.467-.292-2.033-.859l-.95-.841-1.259 1.116 1.059.934a4.488 4.488 0 003.183 1.308c2.483 0 4.5-2.008 4.5-4.483 0-2.475-2.017-4.475-4.5-4.475z"/></g></svg>